<?xml version="1.0" encoding="UTF-8"?>
<svg id="Layer_2" data-name="Layer 2" xmlns="http://www.w3.org/2000/svg" viewBox="0 0 479.91 479.91">
  <defs>
    <style>
      .cls-1 {
        fill: #002d62;
      }
    </style>
  </defs>
  <g id="Layer_1-2" data-name="Layer 1">
    <g>
      <path class="cls-1" d="M441.2,215.8c21.93-4.94,38.7-30.38,38.7-61,0-34.14-20.83-61.92-46.44-61.92-5.53,0-10.85,1.45-15.87,3.89-.45-4.56-1.63-8.87-3.54-12.82,11.96-8.64,19.41-22.55,19.41-37.51,0-25.61-20.83-46.44-46.44-46.44-19.58,0-36.38,12.23-43.12,29.63-11.76-8.91-26.35-14.15-42.03-14.15-29.81,0-56,18.89-65.68,46.62-20.33,1.98-36.1,19.73-34.88,40.82,1.19,20.57,18.7,36.41,39.31,36.41h74.29c-3.37,7.05-5.3,14.9-5.3,23.22,0,27.24,20.23,49.79,46.44,53.56v16.1h-108.37v-75.72c0-4.54-3.09-8.5-7.5-9.61l-54.42-13.61V55.4c0-4.95-4.01-8.96-8.96-8.96h-90.45c-4.95,0-8.96,4.01-8.96,8.96v77.88l-54.42,13.61c-4.41,1.1-7.5,5.06-7.5,9.61v75.72H5.86C2.63,232.21,0,234.84,0,238.08v.03c0,131.44,104.96,239.85,236.38,241.77,133.94,1.96,243.52-106.43,243.52-239.93v-1.88c0-3.24-2.63-5.86-5.86-5.86h-32.84v-16.41ZM464.42,154.81c0,21.18-10.05,39.54-23.22,44.85v-25.68c0-2.04-1.65-3.69-3.69-3.69h-8.1c-2.04,0-3.69,1.65-3.69,3.69v25.69c-5.2-2.08-10.01-6.17-13.94-12.04,3.94-7.51,6.2-16.03,6.2-25.09,0-12.03-4-23.13-10.65-32.13,5.67-13.49,15.61-22.05,26.13-22.05,16.78,0,30.96,21.27,30.96,46.44h0ZM387.02,15.48c17.07,0,30.96,13.89,30.96,30.96,0,10.09-5.1,19.49-13.29,25.23-6.81-5.99-15.65-9.75-25.41-9.75-3.9,0-7.6.75-11.15,1.83-2.56-7.97-6.47-15.25-11.47-21.61,2.12-15.13,14.89-26.67,30.37-26.67h0ZM216.73,100.63c0-12.78,10.39-23.19,23.25-23.19h.06c.45.06.91.12,1.37.15l6.44.44,1.59-6.25c6.1-24.03,27.67-40.81,52.43-40.81s46.07,16.86,52.23,40.51c-7.28,6.29-12.28,15.16-13.33,25.23-.22,2.1,1.46,3.93,3.58,3.93h8.36c1.8,0,3.31-1.33,3.55-3.11,1.62-12.03,12.48-21.17,25.18-20.01,12.04,1.1,21.06,11.57,21.06,23.66v7.55c-2.53,3.01-4.76,6.46-6.76,10.17-8.97-6.58-19.99-10.52-31.94-10.52-14.72,0-28.07,5.92-37.85,15.48h-86c-12.81,0-23.22-10.42-23.22-23.22h0ZM325.1,162.55c0-22.26,18.89-40.19,41.49-38.6,19.38,1.36,34.92,17.27,35.87,36.67.96,19.53-12.67,36.13-30.91,39.85v-42.46l10.25-10.25c1.64-1.64,1.64-4.29,0-5.92l-5.02-5.02c-1.64-1.64-4.29-1.64-5.92,0l-14.79,14.79v19.71l-7.68-5.12c-1.94-1.29-4.56-.77-5.85,1.17l-3.91,5.86c-1.29,1.94-.77,4.55,1.17,5.84l16.26,10.85v10.56c-17.64-3.6-30.96-19.24-30.96-37.92h0ZM371.54,216.11c11.93-1.72,22.62-7.28,30.72-15.45,6.56,7.99,14.63,13.2,23.46,15.13v16.42h-54.18v-16.1ZM232.21,164.68v67.54h-46.44v-82.97l42.74,10.68c2.18.54,3.71,2.5,3.71,4.75ZM96.06,92.88h71.06c1.75,0,3.17,1.42,3.17,3.17v136.15h-77.4V96.06c0-1.75,1.42-3.17,3.17-3.17ZM170.29,64.11v11.1c0,1.21-.98,2.19-2.19,2.19h-73.03c-1.21,0-2.19-.98-2.19-2.19v-11.1c0-1.21.98-2.19,2.19-2.19h73.03c1.21,0,2.19.98,2.19,2.19ZM34.4,160l43-10.75v82.97H30.96v-67.81c0-2.08,1.42-3.9,3.44-4.41ZM224.47,247.69h15.23c3.87,0,7.34,2.73,7.91,6.56.71,4.78-3,8.92-7.65,8.92H101.16c-12.09,0-22.56,9.02-23.66,21.06-1.25,13.77,9.6,25.39,23.12,25.39h77.15c3.87,0,7.34,2.73,7.91,6.56.71,4.78-3,8.92-7.65,8.92H32.31c-9.88-24.02-15.77-50.09-16.69-77.4h208.86ZM70.55,387.02h200.11c3.87,0,7.34,2.73,7.91,6.56.71,4.78-3,8.92-7.65,8.92h-53.65c-12.09,0-22.56,9.02-23.66,21.06-1.25,13.77,9.6,25.39,23.12,25.39h77.4c3.93,0,7.06,2.99,7.55,6.79-19.62,5.63-40.32,8.69-61.73,8.69-67.56,0-128.22-30.02-169.41-77.4h0ZM363.8,294.14h-53.93c-3.87,0-7.34-2.73-7.91-6.56-.71-4.78,3-8.92,7.65-8.92h151.43c-4.87,27.9-14.93,54.04-29.11,77.4h-98.84c-3.87,0-7.34-2.73-7.91-6.56-.71-4.78,3-8.92,7.65-8.92h30.42c12.09,0,22.56-9.02,23.66-21.06,1.25-13.77-9.6-25.39-23.12-25.39h0ZM463.16,263.17h-153.01c-12.09,0-22.56,9.02-23.66,21.06-1.25,13.77,9.6,25.39,23.12,25.39h53.93c3.87,0,7.34,2.73,7.91,6.56.71,4.78-3,8.92-7.65,8.92h-30.42c-12.09,0-22.56,9.02-23.66,21.06-1.25,13.77,9.6,25.39,23.12,25.39h88.81c-26.12,35.97-62.62,63.93-105.1,79.4-2.57-10.01-11.6-17.48-22.41-17.48h-77.15c-3.87,0-7.34-2.73-7.91-6.56-.71-4.78,3-8.92,7.65-8.92h53.65c12.09,0,22.56-9.02,23.66-21.06,1.25-13.77-9.6-25.39-23.12-25.39H58.25c-7.09-9.76-13.43-20.1-18.9-30.96h138.14c12.09,0,22.56-9.02,23.66-21.06,1.25-13.77-9.6-25.39-23.12-25.39h-77.15c-3.87,0-7.34-2.73-7.91-6.56-.71-4.78,3-8.92,7.65-8.92h139.33c12.81,0,23.22-10.42,23.22-23.22,0-2.73-.56-5.31-1.43-7.74h202.54c-.18,5.21-.59,10.37-1.13,15.48h0Z"/>
      <path class="cls-1" d="M301.88,46.44c-16.12,0-30.36,9.93-36.07,24.66-.89,2.3.47,4.86,2.86,5.48l7.01,1.8c1.96.5,4.03-.47,4.82-2.33,3.59-8.46,11.95-14.12,21.38-14.12,2.86,0,5.69.53,8.34,1.55,1.94.75,4.14.04,5.18-1.76l3.62-6.27c1.24-2.14.35-4.91-1.92-5.89-4.78-2.05-9.97-3.11-15.23-3.11h0Z"/>
      <rect class="cls-1" x="46.44" y="201.25" width="15.48" height="15.48" rx="4.21" ry="4.21"/>
      <rect class="cls-1" x="46.44" y="170.29" width="15.48" height="15.48" rx="4.21" ry="4.21"/>
      <rect class="cls-1" x="201.25" y="170.29" width="15.48" height="15.48" rx="4.21" ry="4.21"/>
      <rect class="cls-1" x="201.25" y="201.25" width="15.48" height="15.48" rx="4.21" ry="4.21"/>
      <rect class="cls-1" x="108.37" y="108.37" width="15.48" height="15.48" rx="4.21" ry="4.21"/>
      <rect class="cls-1" x="139.33" y="108.37" width="15.48" height="15.48" rx="4.21" ry="4.21"/>
      <rect class="cls-1" x="139.33" y="139.33" width="15.48" height="15.48" rx="4.21" ry="4.21"/>
      <rect class="cls-1" x="108.37" y="139.33" width="15.48" height="15.48" rx="4.21" ry="4.21"/>
      <rect class="cls-1" x="108.37" y="170.29" width="15.48" height="15.48" rx="4.21" ry="4.21"/>
      <rect class="cls-1" x="139.33" y="170.29" width="15.48" height="15.48" rx="4.21" ry="4.21"/>
      <rect class="cls-1" x="108.37" y="201.25" width="15.48" height="15.48" rx="4.21" ry="4.21"/>
      <rect class="cls-1" x="139.33" y="201.25" width="15.48" height="15.48" rx="4.21" ry="4.21"/>
    </g>
  </g>
</svg>