<?xml version="1.0" encoding="UTF-8"?>
<svg id="Layer_2" data-name="Layer 2" xmlns="http://www.w3.org/2000/svg" viewBox="0 0 468.39 468.39">
  <defs>
    <style>
      .cls-1 {
        fill: #002d62;
      }
    </style>
  </defs>
  <g id="Layer_1-2" data-name="Layer 1">
    <path class="cls-1" d="M264.98,209.97h-61.57c-31.97,0-58.05,25.99-58.05,58.05v46.94c0,4.46,3.62,8.08,8.08,8.08h161.52c4.46,0,8.08-3.62,8.08-8.08v-46.94c0-31.97-25.99-58.05-58.05-58.05h0ZM306.88,306.88h-24.23v-32.3c0-4.46-3.62-8.08-8.08-8.08s-8.08,3.62-8.08,8.08v32.3h-64.61v-32.3c0-4.46-3.62-8.08-8.08-8.08s-8.08,3.62-8.08,8.08v32.3h-24.23v-38.86c0-23.1,18.8-41.9,41.9-41.9h61.57c23.1,0,41.9,18.8,41.9,41.9v38.86ZM234.2,96.91c-26.75,0-48.45,21.71-48.45,48.45s21.71,48.45,48.45,48.45,48.45-21.71,48.45-48.45-21.71-48.45-48.45-48.45h0ZM234.2,177.67c-17.83,0-32.3-14.47-32.3-32.3s14.47-32.3,32.3-32.3,32.3,14.47,32.3,32.3-14.47,32.3-32.3,32.3h0ZM426.25,80.76h-44.92c-23.26,0-42.14,18.89-42.14,42.15v30.54c0,4.46,3.62,8.08,8.08,8.08h113.06c4.46,0,8.08-3.62,8.08-8.08v-30.54c0-23.26-18.89-42.15-42.14-42.15h0ZM452.24,145.36h-16.15v-16.15c0-4.46-3.62-8.08-8.08-8.08s-8.08,3.62-8.08,8.08v16.15h-32.3v-16.15c0-4.46-3.62-8.08-8.08-8.08s-8.08,3.62-8.08,8.08v16.15h-16.15v-22.46c0-14.39,11.69-25.99,25.99-25.99h44.92c14.39,0,25.99,11.69,25.99,25.99v22.46ZM403.79,64.61c17.83,0,32.3-14.47,32.3-32.3S421.62,0,403.79,0s-32.3,14.47-32.3,32.3,14.47,32.3,32.3,32.3h0ZM403.79,16.15c8.87,0,16.15,7.28,16.15,16.15s-7.28,16.15-16.15,16.15-16.15-7.28-16.15-16.15,7.28-16.15,16.15-16.15h0ZM87.07,80.76h-44.92C18.89,80.76,0,99.64,0,122.9v30.54c0,4.46,3.62,8.08,8.08,8.08h113.06c4.46,0,8.08-3.62,8.08-8.08v-30.54c0-23.26-18.89-42.15-42.14-42.15h0ZM113.06,145.36h-16.15v-16.15c0-4.46-3.62-8.08-8.08-8.08s-8.08,3.62-8.08,8.08v16.15h-32.3v-16.15c0-4.46-3.62-8.08-8.08-8.08s-8.08,3.62-8.08,8.08v16.15h-16.15v-22.46c0-14.39,11.69-25.99,25.99-25.99h44.92c14.39,0,25.99,11.69,25.99,25.99v22.46ZM64.61,64.61c17.83,0,32.3-14.47,32.3-32.3S82.44,0,64.61,0s-32.3,14.47-32.3,32.3,14.47,32.3,32.3,32.3h0ZM64.61,16.15c8.87,0,16.15,7.28,16.15,16.15s-7.28,16.15-16.15,16.15-16.15-7.28-16.15-16.15,7.28-16.15,16.15-16.15h0ZM87.07,387.64h-44.92c-23.26,0-42.14,18.89-42.14,42.14v30.54c0,4.46,3.62,8.08,8.08,8.08h113.06c4.46,0,8.08-3.62,8.08-8.08v-30.54c0-23.26-18.89-42.14-42.14-42.14h0ZM113.06,452.24h-16.15v-16.15c0-4.46-3.62-8.08-8.08-8.08s-8.08,3.62-8.08,8.08v16.15h-32.3v-16.15c0-4.46-3.62-8.08-8.08-8.08s-8.08,3.62-8.08,8.08v16.15h-16.15v-22.46c0-14.39,11.69-25.99,25.99-25.99h44.92c14.39,0,25.99,11.69,25.99,25.99v22.46ZM32.3,339.18c0,17.83,14.47,32.3,32.3,32.3s32.3-14.47,32.3-32.3-14.47-32.3-32.3-32.3-32.3,14.47-32.3,32.3h0ZM64.61,323.03c8.87,0,16.15,7.28,16.15,16.15s-7.28,16.15-16.15,16.15-16.15-7.28-16.15-16.15,7.28-16.15,16.15-16.15h0ZM426.25,387.64h-44.92c-23.26,0-42.14,18.89-42.14,42.14v30.54c0,4.46,3.62,8.08,8.08,8.08h113.06c4.46,0,8.08-3.62,8.08-8.08v-30.54c0-23.26-18.89-42.14-42.14-42.14h0ZM452.24,452.24h-16.15v-16.15c0-4.46-3.62-8.08-8.08-8.08s-8.08,3.62-8.08,8.08v16.15h-32.3v-16.15c0-4.46-3.62-8.08-8.08-8.08s-8.08,3.62-8.08,8.08v16.15h-16.15v-22.46c0-14.39,11.69-25.99,25.99-25.99h44.92c14.39,0,25.99,11.69,25.99,25.99v22.46ZM371.49,339.18c0,17.83,14.47,32.3,32.3,32.3s32.3-14.47,32.3-32.3-14.47-32.3-32.3-32.3-32.3,14.47-32.3,32.3h0ZM403.79,323.03c8.87,0,16.15,7.28,16.15,16.15s-7.28,16.15-16.15,16.15-16.15-7.28-16.15-16.15,7.28-16.15,16.15-16.15h0ZM218.05,48.45c0-4.46,3.62-8.08,8.08-8.08h16.15c4.46,0,8.08,3.62,8.08,8.08s-3.62,8.08-8.08,8.08h-16.15c-4.46,0-8.08-3.62-8.08-8.08h0ZM169.59,48.45c0-4.46,3.62-8.08,8.08-8.08h16.15c4.46,0,8.08,3.62,8.08,8.08s-3.62,8.08-8.08,8.08h-16.15c-4.46,0-8.08-3.62-8.08-8.08h0ZM266.5,48.45c0-4.46,3.62-8.08,8.08-8.08h16.15c4.46,0,8.08,3.62,8.08,8.08s-3.62,8.08-8.08,8.08h-16.15c-4.46,0-8.08-3.62-8.08-8.08h0ZM250.35,419.94c0,4.46-3.62,8.08-8.08,8.08h-16.15c-4.46,0-8.08-3.62-8.08-8.08s3.62-8.08,8.08-8.08h16.15c4.46,0,8.08,3.62,8.08,8.08h0ZM201.89,419.94c0,4.46-3.62,8.08-8.08,8.08h-16.15c-4.46,0-8.08-3.62-8.08-8.08s3.62-8.08,8.08-8.08h16.15c4.46,0,8.08,3.62,8.08,8.08h0ZM298.8,419.94c0,4.46-3.62,8.08-8.08,8.08h-16.15c-4.46,0-8.08-3.62-8.08-8.08s3.62-8.08,8.08-8.08h16.15c4.46,0,8.08,3.62,8.08,8.08h0ZM56.53,218.05v-16.15c0-4.46,3.62-8.08,8.08-8.08s8.08,3.62,8.08,8.08v16.15c0,4.46-3.62,8.08-8.08,8.08s-8.08-3.62-8.08-8.08h0ZM56.53,250.35c0-4.46,3.62-8.08,8.08-8.08s8.08,3.62,8.08,8.08v16.15c0,4.46-3.62,8.08-8.08,8.08s-8.08-3.62-8.08-8.08v-16.15ZM395.71,218.05v-16.15c0-4.46,3.62-8.08,8.08-8.08s8.08,3.62,8.08,8.08v16.15c0,4.46-3.62,8.08-8.08,8.08s-8.08-3.62-8.08-8.08h0ZM395.71,250.35c0-4.46,3.62-8.08,8.08-8.08s8.08,3.62,8.08,8.08v16.15c0,4.46-3.62,8.08-8.08,8.08s-8.08-3.62-8.08-8.08v-16.15Z"/>
  </g>
</svg>