<?xml version="1.0" encoding="UTF-8"?>
<svg id="Layer_2" data-name="Layer 2" xmlns="http://www.w3.org/2000/svg" xmlns:xlink="http://www.w3.org/1999/xlink" viewBox="0 0 455.39 486.47">
  <defs>
    <style>
      .cls-1 {
        fill: none;
      }

      .cls-2 {
        fill: #002d62;
        fill-rule: evenodd;
      }

      .cls-3 {
        clip-path: url(#clippath);
      }
    </style>
    <clipPath id="clippath">
      <rect class="cls-1" width="455.39" height="486.47"/>
    </clipPath>
  </defs>
  <g id="Layer_1-2" data-name="Layer 1">
    <g class="cls-3">
      <path class="cls-2" d="M227.69,98c-9.43,0-17.08-7.67-17.08-17.08s7.66-17.1,17.08-17.1,17.08,7.67,17.08,17.1-7.66,17.08-17.08,17.08h0ZM227.69,49.09c-17.55,0-31.82,14.28-31.82,31.83s14.27,31.81,31.82,31.81,31.82-14.28,31.82-31.81-14.27-31.83-31.82-31.83h0ZM268.78,297.14c2.74,3.02,2.49,7.68-.53,10.41l-45.41,40.95c-2.9,2.62-7.37,2.51-10.14-.26l-25.84-25.84c-2.87-2.88-2.87-7.53,0-10.41,2.88-2.88,7.55-2.88,10.42,0l20.89,20.89,40.22-36.26c3.02-2.72,7.67-2.48,10.39.53h0ZM227.69,390.01c39.39,0,71.43-32.04,71.43-71.43s-32.04-71.44-71.43-71.44-71.43,32.05-71.43,71.44,32.04,71.43,71.43,71.43h0ZM227.69,232.41c-47.51,0-86.16,38.66-86.16,86.17s38.66,86.16,86.16,86.16,86.17-38.65,86.17-86.16-38.65-86.17-86.17-86.17h0ZM439.15,423.36c0,.18-.18.35-.35.35h-113.06c5.43-7.14,10.27-14.78,14.52-22.95h98.54c.17,0,.35.16.35.34v22.26ZM227.69,471.19c115.56-35.94,125.18-129.39,123.2-231.2-44.33-6.32-89.5-27.25-123.18-57.08-33,29.38-79.11,50.75-123.22,57.08-1.98,101.81,7.64,195.26,123.2,231.2h0ZM16.59,423.7c-.16,0-.35-.17-.35-.35v-22.26c0-.18.18-.34.35-.34h98.54c4.26,8.17,9.1,15.81,14.53,22.95H16.59ZM47.57,362.71h52.85c2.24,8.15,4.72,15.59,7.89,23.31h-60.74v-23.31ZM96.87,347.98h-28.67v-197.22h38.91v73.9c-3.57.6-7.12,1.11-10.65,1.5-3.67.41-6.46,3.45-6.55,7.15-.87,36.48-.9,77.03,6.97,114.67h0ZM333.56,150.77v70.9c-37.18-8.99-73.54-28.32-100.8-54.11-2.85-2.69-7.31-2.68-10.15.03-26.51,25.35-63.51,44.94-100.77,54.05v-70.86h211.72ZM46.21,136.04h362.96c2.23,0,3.45-1.26,3.45-1.67v-15.89c0-4.46-3.23-7.16-5.92-8.64L239.34,17.87c-7.18-3.94-16.13-3.94-23.3,0L48.68,109.84c-2.7,1.48-5.92,4.18-5.92,8.64v15.89c0,.41,1.22,1.67,3.45,1.67h0ZM365.48,233.31c-.09-3.7-2.89-6.75-6.55-7.15-3.55-.39-7.1-.89-10.64-1.49v-73.9h38.89v197.22h-28.67c7.87-37.64,7.83-78.19,6.97-114.67h0ZM407.82,362.71v23.31h-60.74c3.16-7.69,5.66-15.2,7.89-23.31h52.85ZM438.79,386.02h-16.25v-24.06c0-7.71-6.27-13.98-13.99-13.98h-6.63v-197.22h7.26c10.02,0,18.18-7.35,18.18-16.4v-15.89c0-8.96-4.94-16.82-13.57-21.55L246.43,4.97c-11.55-6.35-25.92-6.35-37.47,0L41.6,96.93c-8.63,4.73-13.57,12.59-13.57,21.55v15.89c0,9.05,8.16,16.4,18.18,16.4h7.26v197.22h-6.63c-7.72,0-13.99,6.27-13.99,13.98v24.06h-16.25c-8.31,0-15.07,6.76-15.07,15.07v22.26c0,8.31,6.76,15.07,15.07,15.07h125.8c20.96,21.34,48.53,37.06,83.18,47.52,1.4.42,2.86.42,4.26,0,34.64-10.46,62.22-26.18,83.18-47.52h125.79c8.31,0,15.07-6.76,15.07-15.07v-22.26c0-8.31-6.76-15.07-15.07-15.07h0Z"/>
    </g>
  </g>
</svg>