<?xml version="1.0" encoding="UTF-8"?>
<svg id="Layer_2" data-name="Layer 2" xmlns="http://www.w3.org/2000/svg" viewBox="0 0 171.68 226.58">
  <defs>
    <style>
      .cls-1 {
        fill: #223d66;
      }

      .cls-2 {
        fill: #2c466b;
      }
    </style>
  </defs>
  <g id="Layer_1-2" data-name="Layer 1">
    <path class="cls-2" d="M70.66,134.52v-53.08h6.73v46.77h8.4V0s0,0,0,0h0c-.75,0-1.51.19-2.2.55L2.61,43.08c-1.59.83-2.61,2.48-2.61,4.28v78.53c0,26.75,12.06,49.93,33.94,65.3l49.13,34.52c.82.57,1.78.86,2.73.87v-92.06h-15.13ZM40.88,99.01c.69,1.14,1.59,2.14,2.71,3.01,1.12.87,2.4,1.64,3.83,2.32,1.43.67,2.9,1.36,4.4,2.06,1.5.7,2.97,1.46,4.4,2.27,1.43.81,2.71,1.79,3.83,2.93,1.12,1.14,2.03,2.48,2.71,4.04.69,1.56,1.03,3.42,1.03,5.58v.38c-.03,2.33-.46,4.35-1.3,6.06-.84,1.71-1.99,3.12-3.43,4.23-1.45,1.11-3.14,1.93-5.07,2.46-1.94.53-4,.8-6.19.8-3.09,0-5.72-.34-7.89-1.03-2.18-.69-3.98-1.45-5.41-2.29-1.66-.95-3.03-2.06-4.12-3.33l4.46-4.38c.53.53,1.25,1.08,2.15,1.64.9.56,1.92,1.07,3.05,1.52,1.14.45,2.36.81,3.66,1.09,1.3.28,2.64.42,4.02.42s2.67-.17,3.81-.53c1.14-.35,2.1-.85,2.9-1.49.8-.65,1.41-1.4,1.83-2.27.42-.87.63-1.84.63-2.9,0-1.54-.34-2.83-1.03-3.87-.69-1.04-1.59-1.94-2.71-2.69-1.12-.76-2.4-1.43-3.83-2.02s-2.89-1.21-4.38-1.85c-1.49-.65-2.95-1.39-4.38-2.23s-2.71-1.88-3.83-3.11c-1.12-1.23-2.03-2.74-2.71-4.5-.69-1.77-1.03-3.92-1.03-6.44s.43-4.51,1.3-6.21c.87-1.7,2.01-3.08,3.41-4.15,1.4-1.07,2.99-1.84,4.76-2.31,1.77-.48,3.55-.72,5.35-.72s3.54.21,5.07.63c1.53.42,2.85.87,3.98,1.35,1.32.56,2.5,1.21,3.54,1.94l3.45,2.36-3.75,5.64-2.86-1.85c-.7-.45-1.49-.88-2.36-1.28-.87-.41-1.75-.76-2.63-1.07-.88-.31-1.72-.55-2.5-.72-.79-.17-1.43-.25-1.94-.25-1.07,0-2.08.16-3.03.48-.95.32-1.8.78-2.53,1.37-.73.59-1.31,1.29-1.75,2.1-.44.81-.65,1.71-.65,2.69,0,1.63.34,3.01,1.03,4.15Z"/>
    <g>
      <path class="cls-1" d="M169.11,43.08L88.08.55c-.71-.38-1.5-.56-2.28-.55v128.2h15.51v6.31h-15.51v92.06s0,0,0,0h0c.99.01,1.97-.27,2.81-.87l49.17-34.52c21.88-15.37,33.89-38.55,33.89-65.3V47.36c0-1.8-.98-3.45-2.57-4.28ZM140.75,134.52h-6.73v-22.35h-21.89v22.35h-6.74v-36.83c.25-3.03,1.05-5.72,2.4-8.08.56-1.01,1.27-2,2.13-2.97.86-.97,1.9-1.84,3.14-2.61,1.23-.77,2.67-1.39,4.31-1.85,1.64-.46,3.54-.69,5.7-.69s4.02.23,5.66.69c1.64.46,3.08,1.08,4.31,1.85,1.24.77,2.29,1.64,3.16,2.61.87.97,1.58,1.96,2.15,2.97,1.35,2.36,2.15,5.05,2.4,8.08v36.83Z"/>
      <path class="cls-1" d="M132.31,92.22c-.52-.67-1.11-1.23-1.77-1.68-.66-.45-1.33-.83-2-1.14-1.6-.7-3.42-1.09-5.47-1.18-2.05.08-3.87.48-5.47,1.18-.67.31-1.34.69-2,1.14-.66.45-1.25,1.01-1.77,1.68-.52.67-.93,1.46-1.24,2.36-.31.9-.46,1.94-.46,3.11v8.17h21.89v-8.17c0-1.18-.15-2.22-.46-3.11-.31-.9-.72-1.68-1.24-2.36Z"/>
    </g>
  </g>
</svg>